<?xml version="1.0" encoding="UTF-8"?>
<svg width="36px" height="48px" viewBox="0 0 36 48" version="1.1" xmlns="http://www.w3.org/2000/svg" xmlns:xlink="http://www.w3.org/1999/xlink">
  <!-- Generator: Sketch 46.1 (44463) - http://www.bohemiancoding.com/sketch -->
  <defs>
  </defs>
  <g id="Acom-Base-Template" stroke="none" stroke-width="1" fill="none" fill-rule="evenodd">
    <g id="Artboard" transform="translate(-371.000000, -826.000000)" fill-rule="nonzero" fill="#03B4EE">
      <path d="M374,829 L404,829 L404,850 L374,850 L374,829 L374,829 Z M380,861.765625 L380,853 L398,853 L398,861.765625 C398,864.3125 397.140625,866.484375 395.421875,868.28125 C393.703125,870.09375 391.5625,871 389,871 C386.4375,871 384.296875,870.09375 382.578125,868.28125 C380.859375,866.46875 380,864.296875 380,861.765625 L380,861.765625 Z M401,861.765625 L401,853 L407,853 L407,826 L371,826 L371,853 L377,853 L377,861.765625 C377,865.171875 378.148438,868.0625 380.445312,870.4375 C382.742188,872.8125 385.59375,874 389,874 C392.40625,874 395.257812,872.8125 397.554688,870.4375 C399.851562,868.0625 401,865.171875 401,861.765625 Z" id="icon-1" transform="translate(389.000000, 850.000000) scale(-1, 1) rotate(-180.000000) translate(-389.000000, -850.000000) ">
      </path>
    </g>
  </g>
</svg>