<?xml version="1.0" encoding="UTF-8"?>
<svg width="27px" height="48px" viewBox="0 0 27 48" version="1.1" xmlns="http://www.w3.org/2000/svg" xmlns:xlink="http://www.w3.org/1999/xlink">
  <!-- Generator: Sketch 46.1 (44463) - http://www.bohemiancoding.com/sketch -->
  <defs>
  </defs>
  <g id="Acom-Base-Template" stroke="none" stroke-width="1" fill="none" fill-rule="evenodd">
    <g id="Artboard" transform="translate(-773.000000, -826.000000)" fill-rule="nonzero" fill="#03B4EE">
      <path d="M782,868 L785,868 L785,865 L782,865 L782,868 L782,868 Z M791,868 L791,865 L788,865 L788,868 L791,868 L791,868 Z M797,859.117188 C797.421875,859.117188 797.8125,859.039062 798.171875,858.882812 C798.53125,858.726562 798.847656,858.511719 799.121094,858.238281 C799.394531,857.964844 799.609375,857.648438 799.765625,857.289062 C799.921875,856.929688 800,856.539062 800,856.117188 L800,838 C800,837.578125 799.921875,837.1875 799.765625,836.828125 C799.609375,836.46875 799.394531,836.152344 799.121094,835.878906 C798.847656,835.605469 798.53125,835.390625 798.171875,835.234375 C797.8125,835.078125 797.421875,835 797,835 L788,835 L788,826 L785,826 L785,835 L776,835 C775.578125,835 775.1875,835.078125 774.828125,835.234375 C774.46875,835.390625 774.152344,835.605469 773.878906,835.878906 C773.605469,836.152344 773.390625,836.46875 773.234375,836.828125 C773.078125,837.1875 773,837.578125 773,838 L773,856.117188 C773,856.539062 773.078125,856.929688 773.234375,857.289062 C773.390625,857.648438 773.605469,857.964844 773.878906,858.238281 C774.152344,858.511719 774.46875,858.726562 774.828125,858.882812 C775.1875,859.039062 775.578125,859.117188 776,859.117188 L776,874 L797,874 L797,859.117188 L797,859.117188 Z M779,859.117188 L794,859.117188 L794,871 L779,871 L779,859.117188 L779,859.117188 Z M797,856.117188 L797,856 L776,856 L776,838 L797,838 L797,856.117188 Z" id="icon-2" transform="translate(786.500000, 850.000000) scale(-1, 1) rotate(-180.000000) translate(-786.500000, -850.000000) ">
      </path>
    </g>
  </g>
</svg>