<?xml version="1.0" encoding="UTF-8"?>
<svg width="48px" height="36px" viewBox="0 0 48 36" version="1.1" xmlns="http://www.w3.org/2000/svg" xmlns:xlink="http://www.w3.org/1999/xlink">
  <!-- Generator: Sketch 46.1 (44463) - http://www.bohemiancoding.com/sketch -->
  <defs>
  </defs>
  <g id="Acom-Base-Template" stroke="none" stroke-width="1" fill="none" fill-rule="evenodd">
    <g id="Artboard" transform="translate(-1174.000000, -838.000000)" fill-rule="nonzero" fill="#03B4EE">
      <path d="M1198,850 C1198,850 1198.40625,850 1199.21875,850 C1200.03125,850 1201.03125,850.585938 1202.21875,851.757812 C1203.40625,852.929688 1204,854.34375 1204,856 C1204,857.65625 1203.41406,859.070312 1202.24219,860.242188 C1201.07031,861.414062 1199.65625,862 1198,862 C1196.34375,862 1194.92969,861.40625 1193.75781,860.21875 C1192.58594,859.03125 1192,857.625 1192,856 C1192,854.375 1192.59375,852.96875 1193.78125,851.78125 C1194.96875,850.59375 1196.375,850 1198,850 L1198,850 Z M1215.13281,870.132812 C1214.52344,870.710938 1213.8125,871 1213,871 C1212.1875,871 1211.48438,870.703125 1210.89062,870.109375 C1210.29688,869.515625 1210,868.8125 1210,868 C1210,867.15625 1210.28906,866.445312 1210.86719,865.867188 C1211.44531,865.289062 1212.15625,865 1213,865 C1213.84375,865 1214.54688,865.296875 1215.10938,865.890625 C1215.70312,866.484375 1216,867.1875 1216,868 C1216,868.8125 1215.71094,869.523438 1215.13281,870.132812 L1215.13281,870.132812 Z M1185.13281,870.132812 C1184.52344,870.710938 1183.8125,871 1183,871 C1182.1875,871 1181.48438,870.703125 1180.89062,870.109375 C1180.29688,869.515625 1180,868.8125 1180,868 C1180,867.15625 1180.28906,866.445312 1180.86719,865.867188 C1181.44531,865.289062 1182.15625,865 1183,865 C1183.84375,865 1184.54688,865.296875 1185.10938,865.890625 C1185.70312,866.484375 1186,867.1875 1186,868 C1186,868.8125 1185.71094,869.523438 1185.13281,870.132812 L1185.13281,870.132812 Z M1208.64062,863.875 C1207.54688,865.03125 1207,866.421875 1207,868.046875 C1207,869.65625 1207.58594,871.050781 1208.75781,872.230469 C1209.92969,873.410156 1211.34375,874 1213,874 C1214.65625,874 1216.07031,873.414062 1217.24219,872.242188 C1218.41406,871.070312 1219,869.671875 1219,868.046875 C1219,866.421875 1218.45312,865.03125 1217.35938,863.875 C1218.79688,863.078125 1219.92969,861.976562 1220.75781,860.570312 C1221.58594,859.164062 1222,857.640625 1222,856 L1219,856 C1219,857.65625 1218.41406,859.070312 1217.24219,860.242188 C1216.07031,861.414062 1214.65625,862 1213,862 C1211.34375,862 1209.92969,861.410156 1208.75781,860.230469 C1207.58594,859.050781 1207,857.695312 1207,856.164062 C1207,854.632812 1206.67578,853.226562 1206.02734,851.945312 C1205.37891,850.664062 1204.48438,849.601562 1203.34375,848.757812 C1206.48438,847.164062 1208.37891,845.253906 1209.02734,843.027344 C1209.67578,840.800781 1210,839.125 1210,838 L1207,838 C1207,840.46875 1206.11719,842.585938 1204.35156,844.351562 C1202.58594,846.117188 1200.46875,847 1198,847 C1195.53125,847 1193.41406,846.117188 1191.64844,844.351562 C1189.88281,842.585938 1189,840.46875 1189,838 L1186,838 C1186,840.234375 1186.59375,842.328125 1187.78125,844.28125 C1188.96875,846.234375 1190.59375,847.726562 1192.65625,848.757812 C1191.51562,849.601562 1190.62109,850.664062 1189.97266,851.945312 C1189.32422,853.226562 1189,854.421875 1189,855.53125 C1189,857.5 1188.41406,859.070312 1187.24219,860.242188 C1186.07031,861.414062 1184.65625,862 1183,862 C1181.34375,862 1179.92969,861.410156 1178.75781,860.230469 C1177.58594,859.050781 1177,857.640625 1177,856 L1174,856 C1174,857.59375 1174.42188,859.109375 1175.26562,860.546875 C1176.10938,861.984375 1177.23438,863.09375 1178.64062,863.875 C1177.54688,865.03125 1177,866.421875 1177,868.046875 C1177,869.65625 1177.58594,871.050781 1178.75781,872.230469 C1179.92969,873.410156 1181.34375,874 1183,874 C1184.65625,874 1186.07031,873.414062 1187.24219,872.242188 C1188.41406,871.070312 1189,869.671875 1189,868.046875 C1189,866.421875 1188.45312,865.03125 1187.35938,863.875 C1188.625,863.1875 1189.67188,862.21875 1190.5,860.96875 C1191.34375,862.234375 1192.42969,863.222656 1193.75781,863.933594 C1195.08594,864.644531 1196.5,865 1198,865 C1199.5,865 1200.91406,864.644531 1202.24219,863.933594 C1203.57031,863.222656 1204.65625,862.234375 1205.5,860.96875 C1206.32812,862.21875 1207.375,863.1875 1208.64062,863.875 Z" id="Shape" transform="translate(1198.000000, 856.000000) scale(-1, 1) rotate(-180.000000) translate(-1198.000000, -856.000000) ">
      </path>
    </g>
  </g>
</svg>